<?xml version="1.0" standalone="no"?><!DOCTYPE svg PUBLIC "-//W3C//DTD SVG 1.1//EN" "http://www.w3.org/Graphics/SVG/1.1/DTD/svg11.dtd"><svg t="1716445373739" class="icon" viewBox="0 0 1024 1024" version="1.1" xmlns="http://www.w3.org/2000/svg" p-id="9326" xmlns:xlink="http://www.w3.org/1999/xlink" width="64" height="64"><path d="M798.408 569.848v-88.407c0-124.764-89.85-229.568-211.378-259.101v-1.493c0-41.949-31.487-75.954-70.328-75.954-38.838 0-70.328 34.004-70.328 75.954v1.733c-121.026 29.856-210.392 134.428-210.392 258.856v72.751h-0.059c1.453 89.798-70.493 107.41-70.493 155.882s39.292 67.386 87.767 67.386h122.755c1.714 58.393 64.233 105.335 141.109 105.335s139.395-46.938 141.109-105.335h122.438c48.475 0 87.771-18.91 87.771-67.386 0.005-45.503-63.661-64.015-69.969-140.22zM517.151 847.314c-58.389 0-105.722-30.723-105.722-68.625 0-0.413 0.010-0.825 0.026-1.239h211.395c0.010 0.413 0.026 0.822 0.026 1.239-0.005 37.901-47.336 68.625-105.727 68.625zM833.375 712.797c-2.197 22.761-32.25 30.008-51.159 30.008h-530.469c-14.482 1.97-51.705-5.107-51.156-29.513v-6.198c0.483-22.037 54.625-40.822 70.179-118.866v-34.038h-0.557v-66.675c0-119.753 91.718-218.82 211.063-235.378v-29.628c0-23.405 15.775-42.378 35.235-42.378s35.235 18.973 35.235 42.378v29.588c119.477 16.445 211.34 115.569 211.34 235.419v66.674h-0.205v30.694h0.273c0.712 56.066 69.668 102.662 70.217 119.522l0.005 8.391z" fill="#333333" p-id="9327"></path></svg>