<?xml version="1.0" standalone="no"?><!DOCTYPE svg PUBLIC "-//W3C//DTD SVG 1.1//EN" "http://www.w3.org/Graphics/SVG/1.1/DTD/svg11.dtd"><svg t="1716445341002" class="icon" viewBox="0 0 1024 1024" version="1.1" xmlns="http://www.w3.org/2000/svg" p-id="7256" xmlns:xlink="http://www.w3.org/1999/xlink" width="64" height="64"><path d="M862.315789 0a161.684211 161.684211 0 0 1 161.684211 161.684211v700.631578a161.684211 161.684211 0 0 1-161.684211 161.684211H161.684211a161.684211 161.684211 0 0 1-161.684211-161.684211V161.684211a161.684211 161.684211 0 0 1 161.684211-161.684211h700.631578z m0 80.842105H161.684211a80.842105 80.842105 0 0 0-80.707369 76.099369L80.842105 161.684211v700.631578a80.842105 80.842105 0 0 0 76.099369 80.707369L161.684211 943.157895h700.631578a80.842105 80.842105 0 0 0 80.707369-76.099369L943.157895 862.315789V161.684211a80.842105 80.842105 0 0 0-76.099369-80.707369L862.315789 80.842105zM215.578947 754.526316v53.894737h53.894737v53.894736H215.578947a53.894737 53.894737 0 0 1-53.894736-53.894736v-53.894737h53.894736z m161.684211 53.894737v53.894736h-53.894737v-53.894736h53.894737z m107.789474 0v53.894736h-53.894737v-53.894736h53.894737z m107.789473 0v53.894736h-53.894737v-53.894736h53.894737z m261.578106-115.685053a26.947368 26.947368 0 0 1 7.895578 19.051789V808.421053a53.894737 53.894737 0 0 1-53.894736 53.894736h-96.633264a26.947368 26.947368 0 0 1-19.051789-45.999157l123.580632-123.580632a26.947368 26.947368 0 0 1 38.103579 0zM215.578947 646.736842v53.894737H161.684211v-53.894737h53.894736z m646.736842-107.789474v53.894737h-53.894736v-53.894737h53.894736zM215.578947 538.947368v53.894737H161.684211v-53.894737h53.894736z m646.736842-107.789473v53.894737h-53.894736v-53.894737h53.894736zM215.578947 431.157895v53.894737H161.684211v-53.894737h53.894736z m646.736842-107.789474v53.894737h-53.894736v-53.894737h53.894736zM215.578947 323.368421v53.894737H161.684211v-53.894737h53.894736z m592.842106-161.68421a53.894737 53.894737 0 0 1 53.894736 53.894736v53.894737h-53.894736V215.578947h-53.894737V161.684211h53.894737zM269.473684 161.684211v53.894736H215.578947v53.894737H161.684211V215.578947a53.894737 53.894737 0 0 1 53.894736-53.894736h53.894737z m431.157895 0v53.894736h-53.894737V161.684211h53.894737z m-107.789474 0v53.894736h-53.894737V161.684211h53.894737z m-107.789473 0v53.894736h-53.894737V161.684211h53.894737z m-107.789474 0v53.894736h-53.894737V161.684211h53.894737z" fill="#000000" p-id="7257"></path></svg>