<?xml version="1.0" standalone="no"?><!DOCTYPE svg PUBLIC "-//W3C//DTD SVG 1.1//EN" "http://www.w3.org/Graphics/SVG/1.1/DTD/svg11.dtd"><svg t="1716445419328" class="icon" viewBox="0 0 1024 1024" version="1.1" xmlns="http://www.w3.org/2000/svg" p-id="11093" xmlns:xlink="http://www.w3.org/1999/xlink" width="64" height="64"><path d="M394.402827 611.5053H90.459364c-47.038869 0-86.840989-39.80212-86.840989-86.840989V94.077739C3.618375 47.038869 43.420495 7.236749 90.459364 7.236749h303.943463c47.038869 0 86.840989 39.80212 86.840989 86.84099v426.968197c0 50.657244-39.80212 90.459364-86.840989 90.459364zM90.459364 79.60424c-7.236749 0-14.473498 7.236749-14.473498 14.473499v426.968197c0 7.236749 7.236749 14.473498 14.473498 14.473499h303.943463c7.236749 0 14.473498-7.236749 14.473498-14.473499V94.077739c0-7.236749-7.236749-14.473498-14.473498-14.473499H90.459364zM394.402827 1016.763251H90.459364C43.420495 1016.763251 3.618375 976.961131 3.618375 929.922261v-144.734982c0-47.038869 39.80212-86.840989 86.840989-86.840989h303.943463c47.038869 0 86.840989 39.80212 86.840989 86.840989v144.734982c0 50.657244-39.80212 86.840989-86.840989 86.84099z m-303.943463-246.04947c-7.236749 0-14.473498 7.236749-14.473498 14.473498v144.734982c0 7.236749 7.236749 14.473498 14.473498 14.473499h303.943463c7.236749 0 14.473498-7.236749 14.473498-14.473499v-144.734982c0-7.236749-7.236749-14.473498-14.473498-14.473498H90.459364zM937.159011 1016.763251h-303.943463c-47.038869 0-86.840989-39.80212-86.84099-86.84099V502.954064c0-47.038869 39.80212-86.840989 86.84099-86.84099h303.943463c47.038869 0 86.840989 39.80212 86.840989 86.84099v426.968197c0 50.657244-39.80212 86.840989-86.840989 86.84099z m-303.943463-528.282686c-7.236749 0-14.473498 7.236749-14.473499 14.473499v426.968197c0 7.236749 7.236749 14.473498 14.473499 14.473499h303.943463c7.236749 0 14.473498-7.236749 14.473498-14.473499V502.954064c0-7.236749-7.236749-14.473498-14.473498-14.473499h-303.943463zM937.159011 325.65371h-303.943463c-47.038869 0-86.840989-39.80212-86.84099-86.840989v-144.734982c0-47.038869 39.80212-86.840989 86.84099-86.84099h303.943463c47.038869 0 86.840989 39.80212 86.840989 86.84099v144.734982C1024 289.469965 984.19788 325.65371 937.159011 325.65371z m-303.943463-246.04947c-7.236749 0-14.473498 7.236749-14.473499 14.473499v144.734982c0 7.236749 7.236749 14.473498 14.473499 14.473498h303.943463c7.236749 0 14.473498-7.236749 14.473498-14.473498v-144.734982c0-7.236749-7.236749-14.473498-14.473498-14.473499h-303.943463z" fill="#2c2c2c" p-id="11094"></path></svg>