<?xml version="1.0" standalone="no"?><!DOCTYPE svg PUBLIC "-//W3C//DTD SVG 1.1//EN" "http://www.w3.org/Graphics/SVG/1.1/DTD/svg11.dtd"><svg t="1716451194792" class="icon" viewBox="0 0 1024 1024" version="1.1" xmlns="http://www.w3.org/2000/svg" p-id="6311" xmlns:xlink="http://www.w3.org/1999/xlink" width="64" height="64"><path d="M204.8 236.8A19.2 19.2 0 0 0 185.6 256v512c0 10.5984 8.6016 19.2 19.2 19.2h614.4a19.2 19.2 0 0 0 19.2-19.2V256A19.2 19.2 0 0 0 819.2 236.8H204.8z m0-64h614.4c45.9264 0 83.2 37.2736 83.2 83.2v512c0 45.9264-37.2736 83.2-83.2 83.2H204.8A83.2 83.2 0 0 1 121.6 768V256c0-45.9264 37.2736-83.2 83.2-83.2z" fill="#5A5A68" p-id="6312"></path><path d="M670.7712 485.0176a52.48 52.48 0 0 1-17.9712 71.9872l-195.7376 117.4016a52.48 52.48 0 0 1-79.4624-44.9536V394.5472a52.48 52.48 0 0 1 79.4624-44.9536L652.8 466.944c7.3728 4.4544 13.568 10.5984 17.9712 18.0224z m-229.1712-70.144v194.2016L603.392 512l-161.792-97.0752z" fill="#5A5A68" p-id="6313"></path></svg>