<?xml version="1.0" standalone="no"?><!DOCTYPE svg PUBLIC "-//W3C//DTD SVG 1.1//EN" "http://www.w3.org/Graphics/SVG/1.1/DTD/svg11.dtd"><svg t="1716451082386" class="icon" viewBox="0 0 1024 1024" version="1.1" xmlns="http://www.w3.org/2000/svg" p-id="2805" xmlns:xlink="http://www.w3.org/1999/xlink" width="64" height="64"><path d="M74.666667 149.333333v85.333334h64V149.333333a10.666667 10.666667 0 0 1 10.666666-10.666666h85.333334v-64H149.333333A74.666667 74.666667 0 0 0 74.666667 149.333333zM896 74.666667h-85.333333v64h85.333333a10.666667 10.666667 0 0 1 10.666667 10.666666v85.333334h64V149.333333A74.666667 74.666667 0 0 0 896 74.666667zM138.666667 896v-85.333333h-64v85.333333A74.666667 74.666667 0 0 0 149.333333 970.666667h85.333334v-64H149.333333a10.666667 10.666667 0 0 1-10.666666-10.666667zM74.666667 298.666667h64v106.666666h-64zM298.666667 74.666667h106.666666v64h-106.666666zM469.333333 74.666667h106.666667v64h-106.666667zM640 74.666667h106.666667v64h-106.666667zM74.666667 469.333333h64v106.666667h-64zM74.666667 640h64v106.666667h-64zM950.826667 717.013333a32 32 0 0 0-34.773334 7.04l-192 192A32 32 0 0 0 746.666667 970.666667h149.333333a74.666667 74.666667 0 0 0 74.666667-74.666667v-149.333333a32 32 0 0 0-19.84-29.653334zM298.666667 906.666667h106.666666v64h-106.666666zM469.333333 906.666667h106.666667v64h-106.666667zM906.666667 298.666667h64v106.666666h-64zM906.666667 469.333333h64v106.666667h-64z" fill="#666666" p-id="2806"></path></svg>