<?xml version="1.0" standalone="no"?><!DOCTYPE svg PUBLIC "-//W3C//DTD SVG 1.1//EN" "http://www.w3.org/Graphics/SVG/1.1/DTD/svg11.dtd"><svg t="1716445261573" class="icon" viewBox="0 0 1024 1024" version="1.1" xmlns="http://www.w3.org/2000/svg" p-id="4272" xmlns:xlink="http://www.w3.org/1999/xlink" width="64" height="64"><path d="M697.088 128A148.693333 148.693333 0 0 0 682.666667 192H245.333333c-29.44 0-53.333333 23.893333-53.333333 53.333333v533.333334c0 29.44 23.893333 53.333333 53.333333 53.333333h533.333334c29.44 0 53.333333-23.893333 53.333333-53.333333V341.418667c22.912 0 44.629333-5.162667 64.042667-14.421334L896 778.666667A117.333333 117.333333 0 0 1 778.666667 896H245.333333A117.333333 117.333333 0 0 1 128 778.666667V245.333333A117.333333 117.333333 0 0 1 245.333333 128h451.754667z m134.912-42.581333a106.666667 106.666667 0 1 1 0 213.333333 106.666667 106.666667 0 0 1 0-213.333333z" fill="#212121" p-id="4273"></path></svg>