<?xml version="1.0" standalone="no"?><!DOCTYPE svg PUBLIC "-//W3C//DTD SVG 1.1//EN" "http://www.w3.org/Graphics/SVG/1.1/DTD/svg11.dtd"><svg t="1716339570729" class="icon" viewBox="0 0 1024 1024" version="1.1" xmlns="http://www.w3.org/2000/svg" p-id="29632" xmlns:xlink="http://www.w3.org/1999/xlink" width="200" height="200"><path d="M661.3 490.7c11.8 0 21.3-9.6 21.3-21.3 0-11.8-9.6-21.3-21.3-21.3h-37.5l46.3-46.3c8.3-8.3 8.3-21.8 0-30.2-8.3-8.3-21.8-8.3-30.2 0l-64 64-64-64c-8.3-8.3-21.8-8.3-30.2 0-8.3 8.3-8.3 21.8 0 30.2l46.3 46.3h-37.5c-11.8 0-21.3 9.6-21.3 21.3 0 11.8 9.6 21.3 21.3 21.3h64v42.7h-64c-11.8 0-21.3 9.6-21.3 21.3 0 11.8 9.6 21.3 21.3 21.3h64v64c0 11.8 9.6 21.3 21.3 21.3s21.3-9.6 21.3-21.3v-64h64c11.8 0 21.3-9.6 21.3-21.3 0-11.8-9.6-21.3-21.3-21.3h-64v-42.7h64.2zM320 426.7c-11.7 0-21.3 9.6-21.3 21.3v106.7c0 11.7 9.6 21.3 21.3 21.3s21.3-9.6 21.3-21.3V448c0-11.7-9.6-21.3-21.3-21.3z" fill="#333333" p-id="29633"></path><path d="M917.3 170.7H106.7c-23.6 0-42.7 19.1-42.7 42.7v194.1c6.8-1.5 14.1-2.1 21.3-2.1s14.5 0.6 21.3 2.1c48.6 9.8 85.3 52.9 85.3 104.5s-36.7 94.7-85.3 104.5c-6.8 1.5-14.1 2.1-21.3 2.1s-14.5-0.6-21.3-2.1v194.1c0 23.6 19.1 42.7 42.7 42.7h512c11.8 0 21.3-9.6 21.3-21.3 0-11.8-9.6-21.3-21.3-21.3H341.3V704c0-11.7-9.6-21.3-21.3-21.3s-21.3 9.6-21.3 21.3v106.7H149.3c-23.6 0-42.7-19.1-42.7-42.7V659.6c72.5-10.2 128-72.3 128-147.6s-55.5-137.4-128-147.6V256c0-23.6 19.1-42.7 42.7-42.7h149.3V320c0 11.7 9.6 21.3 21.3 21.3s21.3-9.6 21.3-21.3V213.3h533.3c23.6 0 42.7 19.1 42.7 42.7v108.4c-72.5 10.2-128 72.3-128 147.6s55.5 137.4 128 147.6V768c0 23.6-19.1 42.7-42.7 42.7h-128c-11.8 0-21.3 9.6-21.3 21.3 0 11.8 9.6 21.3 21.3 21.3h170.7c23.6 0 42.7-19.1 42.7-42.7V616.5c-6.8 1.5-14.1 2.1-21.3 2.1s-14.5-0.6-21.3-2.1C868.7 606.7 832 563.6 832 512s36.7-94.7 85.3-104.5c6.8-1.5 14.1-2.1 21.3-2.1s14.5 0.6 21.3 2.1V213.4c0.1-23.6-19-42.7-42.6-42.7z" fill="#333333" p-id="29634"></path></svg>