<?xml version="1.0" standalone="no"?><!DOCTYPE svg PUBLIC "-//W3C//DTD SVG 1.1//EN" "http://www.w3.org/Graphics/SVG/1.1/DTD/svg11.dtd"><svg t="1719452489354" class="icon" viewBox="0 0 1024 1024" version="1.1" xmlns="http://www.w3.org/2000/svg" p-id="4498" xmlns:xlink="http://www.w3.org/1999/xlink" width="200" height="200"><path d="M705.28 256.426667h-141.226667a26.581333 26.581333 0 0 1-26.410666-26.752c0-14.762667 11.818667-26.752 26.453333-26.752h141.184V69.546667c0-14.762667 11.818667-26.752 26.453333-26.752 14.549333 0 26.368 11.946667 26.368 26.752v133.333333h127.829334c14.592 0 26.453333 11.946667 26.453333 26.752a26.581333 26.581333 0 0 1-26.453333 26.709333h-127.829334v153.429334a26.581333 26.581333 0 0 1-26.410666 26.709333 26.581333 26.581333 0 0 1-26.453334-26.709333V256.384z m154.709333 237.738666c14.592 0 26.453333 11.946667 26.453334 26.752v387.712c0 39.68-31.786667 72.106667-70.698667 72.106667H113.92a71.168 71.168 0 0 1-70.656-71.808V234.069333c0-39.637333 32-71.808 71.125333-71.808h343.125334c14.592 0 26.453333 11.946667 26.453333 26.709334a26.581333 26.581333 0 0 1-26.453333 26.752H114.346667a18.474667 18.474667 0 0 0-18.304 18.346666v674.858667c0 10.24 7.978667 18.346667 17.834666 18.346667h701.866667a18.389333 18.389333 0 0 0 17.834667-18.602667v-387.754667c0-14.762667 11.861333-26.752 26.453333-26.752zM192 524.8a34.133333 34.133333 0 1 1 0-68.266667h213.333333a34.133333 34.133333 0 1 1 0 68.266667h-213.333333z m0 202.666667a34.133333 34.133333 0 1 1 0-68.266667h512a34.133333 34.133333 0 1 1 0 68.266667h-512z" fill="#7C7C7C" p-id="4499"></path></svg>