<?xml version="1.0" standalone="no"?><!DOCTYPE svg PUBLIC "-//W3C//DTD SVG 1.1//EN" "http://www.w3.org/Graphics/SVG/1.1/DTD/svg11.dtd"><svg t="1714465341051" class="icon" viewBox="0 0 1024 1024" version="1.1" xmlns="http://www.w3.org/2000/svg" p-id="4175" xmlns:xlink="http://www.w3.org/1999/xlink" width="200" height="200"><path d="M682.67 68.27v34.13q0 16 9.06 25.06 9.07 9.06 25.07 9.06t25.07-9.06q9.06-9.06 9.06-25.06V34.13q0-16-9.06-25.07Q732.8 0 716.8 0H34.13q-16 0-25.07 9.06Q0 18.12 0 34.13v68.27q0 16 9.06 25.06 9.06 9.06 25.07 9.06 16 0 25.07-9.06t9.07-25.06V68.27h273.06v785.06q0 16 9.07 25.07t25.07 9.07q16 0 25.06-9.07 9.06-9.07 9.06-25.07V68.27h273.07z m307.2 273.06h-409.6q-16 0-25.07 9.07t-9.07 25.07v68.26q0 16 9.07 25.07t25.07 9.07q16 0 25.07-9.07 9.06-9.07 9.06-25.07V409.6h136.53v443.73q0 16 9.07 25.07t25.07 9.07q16 0 25.06-9.07 9.07-9.07 9.07-25.07V409.6h136.53v34.13q0 16 9.07 25.07t25.07 9.07q16 0 25.06-9.07 9.07-9.07 9.07-25.07v-68.26q0-16-9.07-25.07-9.06-9.07-25.06-9.07z" p-id="4176"></path></svg>