<?xml version="1.0" standalone="no"?><!DOCTYPE svg PUBLIC "-//W3C//DTD SVG 1.1//EN" "http://www.w3.org/Graphics/SVG/1.1/DTD/svg11.dtd"><svg t="1716451122433" class="icon" viewBox="0 0 1024 1024" version="1.1" xmlns="http://www.w3.org/2000/svg" p-id="3932" xmlns:xlink="http://www.w3.org/1999/xlink" width="64" height="64"><path d="M906.38632 247.859831c5.316029-15.948086 3.322518-33.225178-4.651525-48.50876-5.980532-11.961064-15.948086-21.264114-27.90915-27.244647L534.264322 6.645036C516.987229-1.993511 497.052122-1.993511 479.110525 5.980532L134.897676 167.454899c-31.896171 15.283582-45.186243 53.160286-30.567164 85.056457 5.980532 12.625568 15.948086 22.593121 27.90915 29.238157L477.117015 463.158988c9.30305 4.651525 19.270604 7.309539 29.90266 7.309539 9.967554 0 20.599611-2.658014 29.902661-7.309539L875.819156 285.736535c14.619079-7.974043 25.251136-21.264114 30.567164-37.876704z m-58.476314-11.961064c-1.993511 3.987021-4.651525 6.645036-8.638546 8.638546L524.961272 409.998702c-11.961064 5.980532-25.915639 5.980532-37.876704 0l-318.961713-167.454899c-9.30305-4.651525-12.625568-16.612589-7.974043-25.251136 1.993511-3.322518 5.316029-6.645036 8.638547-7.974043L489.078079 57.811811c5.316029-2.658014 11.296561-3.987021 17.941596-3.987022 5.980532 0 11.961064 1.329007 17.277093 3.987022l314.974692 152.83582c9.30305 4.651525 13.290071 15.948086 8.638546 25.251136zM456.517404 497.713173L93.033952 287.730045c-27.90915-16.612589-63.792343-7.309539-79.740429 20.599611C7.977495 316.968202 5.319481 327.60026 5.319481 338.232317v352.186891c0 17.941596 8.638546 35.883193 23.257624 46.51525l364.147956 275.104478c10.632057 7.974043 22.593121 11.961064 35.218689 11.961064 17.941596 0 35.218689-7.974043 46.51525-23.257625 7.309539-9.967554 11.961064-22.593121 11.961065-35.218689V548.215445c-0.664504-20.599611-11.961064-39.870214-29.902661-50.502272z m-27.244646 449.868917c0 9.30305-7.974043 16.612589-17.277093 16.612589-3.987021 0-7.309539-1.329007-9.967554-3.322518l-340.890331-259.156392c-3.987021-3.322518-6.645036-7.974043-6.645035-13.290071V350.857884c0-7.309539 2.658014-13.290071 6.645035-15.283582 1.329007-0.664504 3.322518-1.329007 4.651525-1.329007 2.658014 0 5.316029 1.329007 7.30954 1.993511l347.535366 205.331603c5.316029 2.658014 8.638546 8.638546 8.638547 14.619078v391.392603zM1001.410331 297.033095c-11.296561-11.296561-25.915639-17.277093-41.199222-17.277092-10.632057 0-20.599611 2.658014-29.90266 7.974042L566.824996 497.713173c-17.941596 10.632057-29.238157 29.902661-29.238157 50.502272v416.643737c0 32.560675 25.915639 58.476314 58.476314 58.476314 12.625568 0 25.251136-3.987021 35.21869-11.961064l363.483452-274.439974c14.619079-11.296561 23.257625-28.573653 23.257625-46.51525v-352.186891c0-15.283582-5.980532-29.902661-16.612589-41.199222z m-32.560675 390.728099c0 5.316029-2.658014 9.967554-6.645036 13.290071l-340.225827 259.156392c-3.322518 2.658014-7.974043 3.987021-12.625568 3.322518-4.651525-0.664504-8.638546-2.658014-11.296561-6.645035-1.993511-2.658014-3.322518-6.645036-3.322518-9.967554V556.189487c0-5.980532 3.322518-11.296561 8.638547-14.619078l346.870863-205.331603c1.993511-1.329007 4.651525-1.993511 7.309539-1.993511 1.329007 0 3.322518 0.664504 4.651525 1.329007 3.987021 2.658014 6.645036 8.638546 6.645036 15.948086v336.238806z" p-id="3933"></path></svg>